<svg xmlns="http://www.w3.org/2000/svg" viewBox="0 0 441.9 565.8">
	<g fill="#736CEC">
		<path d="M165.38,183.66a40.83,40.83,0,0,0-73.67,0,8.57,8.57,0,0,0,15.5,7.3,23.64,23.64,0,0,1,42.67,0,8.57,8.57,0,0,0,15.5-7.3Z" />
		<path d="M347.29,183.66a40.83,40.83,0,0,0-73.67,0,8.57,8.57,0,0,0,15.5,7.3,23.64,23.64,0,0,1,42.67,0,8.57,8.57,0,0,0,15.5-7.3Z" />
		<path d="M282,265.48H158.52A8.55,8.55,0,0,0,150,274c0,38.58,31.54,70,70.31,70s70.3-31.39,70.3-70A8.55,8.55,0,0,0,282,265.48Zm-61.73,61.43a53.16,53.16,0,0,1-52.47-44.37H272.73A53.18,53.18,0,0,1,220.26,326.91Z" />
		<path d="M395.55,87.92a8.6,8.6,0,0,0-12-1.73,8.49,8.49,0,0,0-1.74,11.94c59.65,79.49,51.39,192.42-19.23,262.69-78.89,78.52-207.27,78.52-286.16,0S-2.48,154.56,76.42,76c70.69-70.35,184.25-78.51,264.15-19a8.6,8.6,0,0,0,12-1.72,8.5,8.5,0,0,0-1.72-11.94A220.35,220.35,0,0,0,64.29,64a217.68,217.68,0,0,0,0,308.91,220.25,220.25,0,0,0,310.42,0,217.71,217.71,0,0,0,20.84-285Z" />
		<path d="M374.81,64.07l-.16-.16a8.61,8.61,0,0,0-12.13,0,8.5,8.5,0,0,0,0,12.07l.16.16a8.62,8.62,0,0,0,12.13,0A8.51,8.51,0,0,0,374.81,64.07Z"/>
		<path d="M71.2,511.94q0,15.72-8.2,25.84-8.59,10.71-24,11.91A59.17,59.17,0,0,0,44.6,555a12,12,0,0,0,7.2,2.3,14.78,14.78,0,0,0,11.6-5.6v9q-1.5,2.5-6.3,3.9a26.77,26.77,0,0,1-7.7,1.2,13.13,13.13,0,0,1-5-.8q-3.19-1.31-10.3-8.8-6.2-6.5-10.5-6.5-5.7,0-20.1,10.1v-9.41a33.91,33.91,0,0,1,10.6-7.11Q.1,533.17.1,512.64.1,495.42,9.3,486t26.4-9.46q16.9,0,26.2,9.26T71.2,511.94ZM61,512.1q-.2-27.9-25.3-27.9-25.4,0-25.4,28.6,0,12.9,6.2,20.8,6.8,8.8,19.3,8.8,12.8,0,19.4-9.1Q61.1,525.31,61,512.1Z"/>
		<path d="M137.4,524.4q0,25.3-27.3,25.3-22.6,0-25.8-16.3a67.46,67.46,0,0,1-.5-10.3V477.3h9.5v44.5a65,65,0,0,0,.4,9q1.8,11,16.4,11,10.31,0,14.3-5.1,3.5-4.5,3.5-15.1V477.3h9.5Z" />
		<path d="M161.2,548h-9.5V477.4h9.5Z" />
		<path d="M225.3,548H171v-9.2l42.6-52.7H171.5v-8.7h53.8v8.86L181.88,539.5H225.3Z" />
		<path d="M318.9,548h-10l-7.76-21.6H274.26L266.35,548h-10l26.9-70.6h9.8Zm-20.53-29.5L288.07,489l-10.8,29.47Z" />
		<path d="M379.4,497.4a22.22,22.22,0,0,1-3.31,12,16.88,16.88,0,0,1-9.69,7.6,32.71,32.71,0,0,1-9.31,1.1H336.7V548h-9.11V477.4h29.5a33.65,33.65,0,0,1,10.2,1.2Q379.4,482.6,379.4,497.4Zm-9.31-.2q0-11.7-12.59-11.7H336.7v24.3h19.7Q370.1,509.8,370.09,497.2Z" />
		<path d="M441.9,497.4a22.22,22.22,0,0,1-3.31,12,16.88,16.88,0,0,1-9.69,7.6,32.71,32.71,0,0,1-9.31,1.1H399.2V548h-9.11V477.4h29.5a33.65,33.65,0,0,1,10.2,1.2Q441.9,482.6,441.9,497.4Zm-9.31-.2q0-11.7-12.59-11.7H399.2v24.3h19.7Q432.6,509.8,432.59,497.2Z" />
	</g>
</svg>
